<svg width="42" height="53" viewBox="0 0 42 53" fill="none" xmlns="http://www.w3.org/2000/svg">
<path d="M5.44118 53C4.07816 53 2.91376 52.5201 1.94798 51.5602C0.982661 50.5998 0.5 49.442 0.5 48.0866V22.58C0.5 21.2247 0.982661 20.0668 1.94798 19.1065C2.91376 18.1466 4.07816 17.6667 5.44118 17.6667H8.7V12.2308C8.7 8.83696 9.89675 5.95004 12.2902 3.57002C14.6837 1.19001 17.587 0 21 0C24.413 0 27.3163 1.19001 29.7098 3.57002C32.1033 5.95004 33.3 8.83696 33.3 12.2308V17.6667H36.5588C37.9218 17.6667 39.0862 18.1466 40.052 19.1065C41.0173 20.0668 41.5 21.2247 41.5 22.58V48.0866C41.5 49.442 41.0173 50.5998 40.052 51.5602C39.0862 52.5201 37.9218 53 36.5588 53H5.44118ZM5.44118 48.9231H36.5588C36.8044 48.9231 37.0059 48.8447 37.1636 48.688C37.3212 48.5312 37.4 48.3308 37.4 48.0866V22.58C37.4 22.3359 37.3212 22.1354 37.1636 21.9787C37.0059 21.822 36.8044 21.7436 36.5588 21.7436H5.44118C5.19564 21.7436 4.99406 21.822 4.83643 21.9787C4.67881 22.1354 4.6 22.3359 4.6 22.58V48.0866C4.6 48.3308 4.67881 48.5312 4.83643 48.688C4.99406 48.8447 5.19564 48.9231 5.44118 48.9231ZM21 40.0897C22.3279 40.0897 23.4573 39.6272 24.388 38.7022C25.3182 37.7768 25.7833 36.6538 25.7833 35.3333C25.7833 34.0129 25.3182 32.8899 24.388 31.9644C23.4573 31.0394 22.3279 30.5769 21 30.5769C19.6721 30.5769 18.5427 31.0394 17.612 31.9644C16.6818 32.8899 16.2167 34.0129 16.2167 35.3333C16.2167 36.6538 16.6818 37.7768 17.612 38.7022C18.5427 39.6272 19.6721 40.0897 21 40.0897ZM12.8 17.6667H29.2V12.2308C29.2 9.96581 28.4028 8.0406 26.8083 6.45513C25.2139 4.86966 23.2778 4.07692 21 4.07692C18.7222 4.07692 16.7861 4.86966 15.1917 6.45513C13.5972 8.0406 12.8 9.96581 12.8 12.2308V17.6667Z" fill="#2F2E2E"/>
</svg>
