<svg width="45" height="35" viewBox="0 0 45 35" fill="none" xmlns="http://www.w3.org/2000/svg">
<path d="M4.28141 35C3.08503 35 2.07237 34.5917 1.24342 33.775C0.414475 32.9583 0 31.9607 0 30.782V4.21798C0 3.03933 0.414475 2.04167 1.24342 1.225C2.07237 0.408335 3.08503 0 4.28141 0H40.7186C41.915 0 42.9276 0.408335 43.7566 1.225C44.5855 2.04167 45 3.03933 45 4.21798V30.782C45 31.9607 44.5855 32.9583 43.7566 33.775C42.9276 34.5917 41.915 35 40.7186 35H4.28141ZM41.4474 6.86527L23.6523 18.0878C23.4701 18.1895 23.2819 18.2695 23.0875 18.3278C22.8932 18.3861 22.6974 18.4153 22.5 18.4153C22.3026 18.4153 22.1068 18.3861 21.9125 18.3278C21.7181 18.2695 21.5299 18.1895 21.3477 18.0878L3.55258 6.86527V30.782C3.55258 30.9914 3.62091 31.1635 3.75757 31.2981C3.89423 31.4327 4.06884 31.5 4.28141 31.5H40.7186C40.9312 31.5 41.1058 31.4327 41.2424 31.2981C41.3791 31.1635 41.4474 30.9914 41.4474 30.782V6.86527ZM22.5 15.1667L41.083 3.49995H3.91696L22.5 15.1667ZM3.55258 7.40369V4.73616V4.80569V4.73167V7.40369Z" fill="#2F2E2E"/>
</svg>
