<svg width="57" height="53" viewBox="0 0 57 53" fill="none" xmlns="http://www.w3.org/2000/svg">
<path d="M28.5 24.0345C25.1411 24.0345 22.2656 22.8578 19.8737 20.5044C17.4817 18.151 16.2857 15.322 16.2857 12.0172C16.2857 8.71249 17.4817 5.88344 19.8737 3.53006C22.2656 1.17669 25.1411 0 28.5 0C31.8589 0 34.7344 1.17669 37.1263 3.53006C39.5183 5.88344 40.7143 8.71249 40.7143 12.0172C40.7143 15.322 39.5183 18.151 37.1263 20.5044C34.7344 22.8578 31.8589 24.0345 28.5 24.0345ZM0 48.84V46.4055C0 44.7518 0.48925 43.2046 1.46775 41.7639C2.44693 40.3238 3.7637 39.2056 5.41805 38.4091C9.26013 36.5965 13.1046 35.2369 16.9514 34.3302C20.7982 33.4243 24.6478 32.9713 28.5 32.9713C32.3523 32.9713 36.2018 33.4243 40.0486 34.3302C43.8954 35.2369 47.7399 36.5965 51.582 38.4091C53.2363 39.2056 54.5531 40.3238 55.5323 41.7639C56.5108 43.2046 57 44.7518 57 46.4055V48.84C57 50.0157 56.5942 51.0028 55.7826 51.8013C54.9711 52.6004 53.9675 53 52.7718 53H4.22818C3.03254 53 2.02893 52.6004 1.21736 51.8013C0.405786 51.0028 0 50.0157 0 48.84ZM4.07143 48.9943H52.9286V46.4055C52.9286 45.5169 52.6375 44.6824 52.0553 43.902C51.4737 43.1215 50.6686 42.4616 49.6399 41.9221C46.2891 40.3252 42.8341 39.1017 39.275 38.2519C35.7159 37.402 32.1243 36.977 28.5 36.977C24.8758 36.977 21.2841 37.402 17.725 38.2519C14.1659 39.1017 10.7109 40.3252 7.36013 41.9221C6.33141 42.4616 5.52629 43.1215 4.94475 43.902C4.36254 44.6824 4.07143 45.5169 4.07143 46.4055V48.9943ZM28.5 20.0287C30.7393 20.0287 32.6563 19.2443 34.2509 17.6753C35.8455 16.1064 36.6429 14.2204 36.6429 12.0172C36.6429 9.81407 35.8455 7.92803 34.2509 6.35912C32.6563 4.7902 30.7393 4.00574 28.5 4.00574C26.2607 4.00574 24.3438 4.7902 22.7491 6.35912C21.1545 7.92803 20.3571 9.81407 20.3571 12.0172C20.3571 14.2204 21.1545 16.1064 22.7491 17.6753C24.3438 19.2443 26.2607 20.0287 28.5 20.0287Z" fill="#2F2E2E"/>
</svg>
